# xmcd
#
# Track frame offsets:
#	150
#	22940
#	50517
#	72031
#	92587
#	116862
#	140249
#	163428
#	192087
#	213966
#	237089
#	257249
#
# Disc length: 3731 seconds
#
# Revision: 1
# Processed by: cddbd v1.5.2PL0 Copyright (c) Steve Scherf et al.
# Submitted via: EZCDAudioConverter 8.0.2.1
#
DISCID=ad0e910c
DTITLE=Đặng Thế Luân, Ngọc Huyền - Nối Lại Tình Xưa
DYEAR=2010
DGENRE=Indie - Alternative
TTITLE0=Đặng Thế Luân - Chuyện tình người con gái ao sen
TTITLE1=Ngọc Huyền - Xa vắng
TTITLE2=Đặng Thế Luân, Ngọc Huyền - Hai đứa giận nhau
TTITLE3=Đặng Thế Luân - Buồn trong kỷ niệm
TTITLE4=Đặng Thế Luân, Ngọc Huyền - Sao không thấy anh về
TTITLE5=Đặng Thế Luân, Ngọc Huyền - Mấy nhịp cầu tre
TTITLE6=Ngọc Huyền - Biển dâu
TTITLE7=Đặng Thế Luân, Ngọc Huyền - Áo em chưa mặc một lần
TTITLE8=Đặng Thế Luân - Cô hàng xóm
TTITLE9=Đặng Thế Luân, Ngọc Huyền - Ăn năn
TTITLE10=Ngọc Huyền - Nếu đời không có anh
TTITLE11=Đặng Thế Luân, Ngọc Huyền - Nối Lại Tình Xưa
EXTD=
EXTT0=
EXTT1=
EXTT2=
EXTT3=
EXTT4=
EXTT5=
EXTT6=
EXTT7=
EXTT8=
EXTT9=
EXTT10=
EXTT11=
PLAYORDER=
